<svg xmlns="http://www.w3.org/2000/svg" viewBox="0 0 512 512"><path d="M178.317 433.164c-4.714 0-9.446-.191-14.179-.589-45.308-3.819-84.492-25.827-113.316-63.643-22.088-28.979-35.837-62.136-40.865-98.549-4.714-34.143-1.225-70.087 10.091-103.949C45.605 89.949 107.704 31.093 186.16 8.994c7.889-2.225 16.083 2.371 18.306 10.259 2.222 7.888-2.372 16.084-10.26 18.305-68.988 19.433-123.572 71.127-146.012 138.28-9.876 29.554-12.932 60.843-8.839 90.484 4.32 31.286 16.119 59.756 35.069 84.618 23.938 31.405 54.961 48.923 92.207 52.062 48.624 4.098 91.425-17.436 106.988-31.972 5.989-5.594 15.379-5.275 20.972.715s5.274 15.379-.715 20.972c-22.549 21.062-68.055 40.447-115.559 40.447z" fill="#7d7060"/><path d="M294.59 371.745c-5.594-5.989-14.983-6.309-20.972-.715-10.651 9.949-34.068 23.173-63.374 29.217 2.606 10.681 7.268 19.766 13.554 27.243 29.472-7.272 54.946-20.64 70.077-34.773 5.989-5.594 6.309-14.983.715-20.972z" opacity=".1"/><path d="M426.968 407.38c-.836-4.453-1.178-9.07-1.218-13.849-.02-4.769.272-9.672 1.016-14.624 1.425-9.903 4.571-20.092 9.669-29.655 5.046-9.563 12.102-18.462 20.607-25.365 8.474-6.943 18.206-11.951 28.258-14.397 8.147-1.982 16.36 3.016 18.342 11.164 1.293 5.316-.385 10.66-3.971 14.283l-1.089 1.092c-2.763 2.774-5.421 5.308-7.873 7.88-2.45 2.569-4.657 5.184-6.732 7.796-4.114 5.258-7.56 10.679-10.525 16.699-2.966 6.01-5.514 12.535-8.113 19.674l-4.031 11.164c-1.443 3.87-2.911 7.943-4.936 12.17-3.718 7.761-13.025 11.039-20.786 7.32a15.557 15.557 0 0 1-8.566-11.092l-.052-.26z" fill="#5d5d5d"/><path d="M459.484 369.025c-4.646-9.252-11.781-17.498-20.588-24.092a85.04 85.04 0 0 0-2.463 4.318c-5.097 9.563-8.243 19.752-9.669 29.655a86.53 86.53 0 0 0-.474 3.702c.496.786.961 1.585 1.37 2.399 3.126 6.224 9.405 9.818 15.925 9.818 2.686 0 5.413-.61 7.977-1.898 8.79-4.413 12.336-15.115 7.922-23.902z" opacity=".15"/><g fill="#6e614f"><path d="M224.869 366.652c-15.204 0-30.128-4.002-43.197-11.732-16.712-9.886-29.107-25.208-34.008-42.038-2.75-9.442 2.674-19.325 12.116-22.074 9.443-2.751 19.325 2.674 22.074 12.116 4.938 16.951 27.197 31.947 52.473 27.24 9.663-1.796 18.964 4.581 20.762 14.249s-4.58 18.964-14.249 20.762a87.362 87.362 0 0 1-15.971 1.477zM445.243 385.677c-6.521 0-12.8-3.594-15.925-9.819-7.924-15.778-32.533-26.49-56.536-17.292-9.184 3.517-19.479-1.073-22.998-10.256-3.518-9.183 1.073-19.48 10.256-22.998 19.492-7.469 40.817-7.691 60.046-.624 18.225 6.698 33.189 19.523 41.056 35.188 4.414 8.787.868 19.489-7.92 23.903a17.733 17.733 0 0 1-7.979 1.898z"/></g><path d="M461.141 359.876c-2.708-5.391-6.273-10.434-10.505-15.019-16.965.704-24.877 13.218-27.137 23.052 2.412 2.428 4.39 5.104 5.819 7.949 3.126 6.224 9.405 9.819 15.925 9.819 2.686 0 5.413-.61 7.977-1.898 8.789-4.413 12.335-15.115 7.921-23.903z" fill="#f8e9b4"/><path d="M244.652 503.571c-5.659 0-11.224-2.692-14.677-7.704-14.573-21.147-17.433-44.395-8.053-65.462 8.741-19.634 27.873-35.044 46.527-37.477 9.749-1.275 18.687 5.602 19.959 15.354 1.272 9.751-5.602 18.687-15.354 19.958-4.854.633-14.27 6.926-18.599 16.648-4.261 9.571-2.632 19.924 4.844 30.772 5.58 8.097 3.54 19.184-4.558 24.764a17.722 17.722 0 0 1-10.089 3.147z" fill="#6e614f"/><path d="M259.299 475.661c-2.074-3.01-3.681-5.98-4.855-8.907-13.409.298-25.789 7.945-32.157 15.399 2.033 4.64 4.594 9.225 7.688 13.715 3.454 5.012 9.017 7.704 14.677 7.704 3.484 0 7.003-1.02 10.088-3.146 8.097-5.581 10.138-16.669 4.559-24.765z" fill="#f8e9b4"/><path d="M288.408 408.281c-1.272-9.752-10.209-16.629-19.959-15.354-13.785 1.798-27.825 10.686-37.747 23.125 6.97 9.858 16.472 17.316 27.684 22.377 4.717-5.991 10.994-9.712 14.666-10.19 9.753-1.271 16.627-10.207 15.356-19.958z" opacity=".1"/><path d="M402.484 477.929c-.233 0-.468-.004-.703-.014-9.827-.382-17.484-8.657-17.101-18.483.511-13.164-3.651-22.782-12.372-28.588-8.859-5.898-20.182-6.177-24.621-4.114-8.917 4.144-19.506.272-23.65-8.646-4.143-8.918-.272-19.507 8.646-23.651 17.062-7.925 41.47-5.143 59.36 6.767 19.197 12.78 29.219 33.95 28.224 59.613-.376 9.593-8.269 17.116-17.783 17.116z" fill="#6e614f"/><g fill="#f8e9b4"><path d="M419.094 443.164c-13.391-3.283-27.059-.162-35.404 4.571.818 3.521 1.154 7.418.988 11.698-.381 9.826 7.274 18.101 17.101 18.483.235.01.47.013.703.013 9.514 0 17.408-7.524 17.78-17.115.24-6.161-.162-12.061-1.168-17.65zM181.854 302.924c-2.75-9.442-12.632-14.867-22.074-12.116-9.442 2.75-14.866 12.633-12.116 22.074 2.135 7.328 5.692 14.369 10.405 20.801 10-2.845 21.762-10.419 30.4-18.828-3.117-3.679-5.396-7.744-6.615-11.931z"/></g><path d="M255.089 344.413c-1.799-9.668-11.099-16.045-20.762-14.249a51.112 51.112 0 0 1-13.031.737c-4.979 10.548-8.113 22.33-8.94 34.828 4.128.606 8.309.924 12.512.924 5.312 0 10.658-.489 15.971-1.477 9.669-1.8 16.048-11.096 14.25-20.763z" opacity=".1"/><path d="M386.156 361.438c0-49.445-36.125-89.529-80.689-89.529-44.563 0-80.689 40.084-80.689 89.529s36.125 74.101 80.689 74.101c44.564.001 80.689-24.656 80.689-74.101z" fill="#6e614f"/><path d="M305.467 271.909c-32.622 0-60.702 21.493-73.42 52.402 22.37 13.877 48.083 22.35 74.608 22.35 25.776 0 50.784-8.003 72.704-21.189-12.483-31.531-40.861-53.563-73.892-53.563z" opacity=".1"/><circle cx="164.754" cy="222.38" r="37.734" fill="#7d7060"/><circle cx="164.754" cy="222.38" r="12.828" fill="#f8ecc8"/><path d="M164.759 184.648a37.547 37.547 0 0 0-18.618 4.918c-.089 2.18-.144 4.374-.144 6.588 0 21.703 7.127 43.835 19.328 63.946 20.578-.304 37.168-17.069 37.168-37.719 0-20.838-16.895-37.733-37.734-37.733z" opacity=".1"/><circle cx="448.552" cy="222.38" r="37.734" fill="#7d7060"/><circle cx="448.552" cy="222.38" r="12.828" fill="#f8ecc8"/><path d="M306.656 326.636c77.739 0 148.525-72.743 148.525-141.18 0-83.98-64.546-143.225-148.525-143.225s-148.525 59.245-148.525 143.225c0 68.437 70.786 141.18 148.525 141.18z" fill="#6e614f"/><path d="M356.279 128.279c-15.915.172-30.524 5.776-42.068 15.044a12.073 12.073 0 0 1-15.109 0c-11.544-9.267-26.152-14.873-42.068-15.044-38.741-.418-69.667 31.989-69.22 70.73.498 43.217 15.278 71.186 32.789 97.489 24.822 18.429 54.876 30.136 86.053 30.136s61.23-11.707 86.053-30.136c17.511-26.303 32.291-54.273 32.79-97.489.447-38.74-30.479-71.147-69.22-70.73z" fill="#f8e9b4"/><path d="M317.394 272.637c-5.931 0-10.737-4.807-10.737-10.737 0 5.93-4.807 10.737-10.737 10.737a10.68 10.68 0 0 1-4.692-1.09v14.945c0 8.521 6.908 15.429 15.429 15.429s15.429-6.908 15.429-15.429v-14.945a10.686 10.686 0 0 1-4.692 1.09z" fill="#edbcb9"/><path d="M306.656 289.243c-5.443 0-10.269 1.947-13.353 4.955 2.668 4.611 7.642 7.722 13.353 7.722 5.711 0 10.685-3.111 13.353-7.722-3.084-3.008-7.91-4.955-13.353-4.955z" fill="#d46d59"/><path d="M315.857 238.028l-2.388 2.844c-4.107 4.891-11.633 4.891-15.741 0l-2.388-2.844c-1.23-1.465-.189-3.7 1.724-3.7h17.067c1.915 0 2.956 2.234 1.726 3.7z" fill="#edbcb9"/><path d="M511.333 318.783c-3.011-12.376-15.531-19.998-27.907-16.986-11.09 2.698-21.949 8.219-31.376 15.943a84.657 84.657 0 0 0-9.884 9.481 88.809 88.809 0 0 0-19.35-9.963c-12.347-4.538-25.652-6.338-38.902-5.326 11.249-6.803 21.921-15.03 31.686-24.555a177.056 177.056 0 0 0 18.841-21.59 45.232 45.232 0 0 0 14.113 2.246c25.172 0 45.651-20.478 45.651-45.651 0-19.936-12.802-37.219-31.238-43.314-1.531-39.949-17.401-76.136-45.101-102.457-28.704-27.277-68.199-42.298-111.21-42.298-43.01 0-82.505 15.022-111.21 42.298-27.7 26.321-43.57 62.509-45.101 102.457-18.437 6.095-31.238 23.378-31.238 43.314 0 25.172 20.478 45.651 45.651 45.651 4.861 0 9.581-.765 14.113-2.246a177.056 177.056 0 0 0 18.841 21.59c9.712 9.473 20.321 17.666 31.503 24.447a101.088 101.088 0 0 0-5.22 11.287c-17.527-.339-31.305-11.291-34.542-22.4-1.92-6.597-6.296-12.051-12.318-15.357-6.022-3.306-12.974-4.067-19.572-2.147-13.617 3.966-21.469 18.272-17.503 31.89 5.459 18.741 19.156 35.739 37.579 46.637 12.151 7.188 25.871 11.464 40.046 12.549.681 5.276 1.791 10.322 3.32 15.116-13.84 4.04-32.654 7.491-53.711 5.713-34.923-2.944-64.051-19.421-86.575-48.972-18.113-23.765-29.392-50.983-33.523-80.902-3.927-28.441-.986-58.489 8.505-86.893C77.311 113.682 129.89 63.9 196.352 45.18c12.078-3.402 19.136-15.995 15.733-28.074a22.614 22.614 0 0 0-10.777-13.68 22.596 22.596 0 0 0-17.296-2.052C103.03 24.184 38.928 84.949 12.539 163.924c-11.7 35.01-15.305 72.198-10.424 107.541 5.217 37.78 19.485 72.188 42.411 102.265 30.217 39.645 71.348 62.721 118.948 66.734 4.863.41 9.858.618 14.843.618 10.692 0 21.567-.96 32.476-2.819-5.377 20.543-1.042 42.208 12.663 62.096a25.736 25.736 0 0 0 21.197 11.13 25.584 25.584 0 0 0 14.579-4.543c5.657-3.898 9.459-9.767 10.702-16.525 1.244-6.757-.219-13.595-4.117-19.252-5.885-8.54-7.236-16.083-4.131-23.059 1.944-4.367 5.423-7.942 8.577-10.087 10.641 3.582 22.474 5.435 35.202 5.435 16.208 0 30.961-3.004 43.645-8.767a24.414 24.414 0 0 0 1.898-.774c1.706-.728 10.034-1.056 16.908 3.52 6.357 4.232 9.252 11.327 8.848 21.69-.55 14.172 10.532 26.15 24.701 26.701.34.014.678.02 1.016.02a25.64 25.64 0 0 0 25.691-24.725c1.107-28.524-10.167-52.144-31.747-66.511a71.893 71.893 0 0 0-6.889-4.043c2.809-8.359 4.326-17.502 4.494-27.306 9.381.77 19.418 4.647 25.339 11.784a82.756 82.756 0 0 0-.436 2.688c-.755 5.034-1.125 10.36-1.102 15.864.048 5.657.49 10.643 1.349 15.217l.063.339c1.413 7.272 6.243 13.523 12.918 16.72a23.367 23.367 0 0 0 10.116 2.306c8.767 0 17.196-4.925 21.23-13.344 1.998-4.173 3.502-8.216 4.827-11.784l4.44-12.263c2.145-5.895 4.746-12.748 7.776-18.886 2.657-5.397 5.816-10.408 9.62-15.271 2.237-2.815 4.226-5.121 6.263-7.258 1.475-1.547 3.056-3.106 4.729-4.756.991-.978 2-1.974 3.018-2.995l1.113-1.115c5.695-5.751 7.952-13.873 6.04-21.726zm-356.068-8.114c-1.524-5.235 1.494-10.735 6.729-12.259 2.538-.739 5.21-.445 7.525.826s3.997 3.366 4.736 5.904c.838 2.877 2.087 5.73 3.703 8.489-5.365 4.39-11.297 8.104-16.755 10.497-2.577-4.293-4.585-8.813-5.938-13.457zm61.651 47.658c-11.057-1.13-21.718-4.606-31.213-10.222a73.152 73.152 0 0 1-14.478-11.224c5.743-2.91 11.599-6.755 16.97-11.174 8.026 6.857 18.768 11.832 31.09 12.989a106.854 106.854 0 0 0-2.369 19.631zm261.453-135.945c0 16.441-13.375 29.817-29.817 29.817-1.639 0-3.252-.138-4.839-.397 10.563-17.889 17.066-36.937 18.865-55.743a29.763 29.763 0 0 1 15.791 26.323zm-313.61 29.817c-16.441 0-29.817-13.375-29.817-29.817a29.77 29.77 0 0 1 15.789-26.324c1.799 18.806 8.304 37.854 18.865 55.743a29.953 29.953 0 0 1-4.837.398zm23.95-.015c-14.471-21.209-22.661-44.797-22.661-66.728 0-38.089 14.314-72.667 40.306-97.366 25.749-24.468 61.37-37.942 100.302-37.942s74.553 13.475 100.302 37.942c25.992 24.699 40.306 59.277 40.306 97.366 0 21.931-8.191 45.519-22.661 66.727 5.14-15.026 8.574-32.39 8.813-53.082.243-21.047-8.117-41.623-22.935-56.452-14.582-14.592-33.853-22.515-54.287-22.287-17.259.186-33.49 5.991-46.938 16.787a4.178 4.178 0 0 1-5.197 0c-13.449-10.796-29.68-16.601-46.939-16.787-20.426-.225-39.707 7.695-54.288 22.287-14.818 14.829-23.178 35.405-22.934 56.451.237 20.692 3.671 38.057 8.811 53.084zm37.728 38.781c-18.647-28.215-30.263-53.643-30.705-92.046-.194-16.813 6.476-33.242 18.302-45.077 11.544-11.553 26.808-17.791 42.916-17.646 13.679.148 26.541 4.747 37.198 13.302 7.25 5.82 17.773 5.82 25.023 0 10.656-8.555 23.519-13.154 37.197-13.302 16.106-.149 31.371 6.092 42.916 17.646 11.825 11.834 18.496 28.264 18.302 45.077-.443 38.404-12.061 63.832-30.706 92.046-24.445 17.818-52.737 27.753-80.219 27.753-27.488.001-55.779-9.934-80.224-27.753zm-8.438 129.74c-13.338 3.002-26.671 4.541-39.683 4.541-4.543 0-9.091-.189-13.514-.562-43.017-3.627-80.254-24.566-107.684-60.554-21.251-27.882-34.48-59.787-39.318-94.833-4.549-32.941-1.175-67.644 9.756-100.356 24.726-73.995 84.82-130.939 160.753-152.327a6.862 6.862 0 0 1 5.256.623 6.885 6.885 0 0 1 3.279 4.162 6.928 6.928 0 0 1-4.785 8.538C120.546 50.082 63.957 103.685 40.684 173.328c-10.26 30.702-13.431 63.234-9.172 94.077 4.509 32.654 16.828 62.375 36.616 88.335 25.351 33.26 58.269 51.817 97.839 55.152 20.047 1.689 41.141-.694 61.423-6.876.436.76.906 1.497 1.368 2.239-4.172 4.42-7.8 9.288-10.759 14.45zm7.996 47.695c-2.805-11.788-1.791-23.656 3.16-34.776 2.351-5.279 5.615-10.29 9.57-14.803 1.462 1.468 2.972 2.901 4.575 4.256 3.439 2.908 7.167 5.498 11.128 7.8-2.785 2.982-5.331 6.581-7.206 10.792-2.087 4.686-3.653 10.947-2.679 18.422-7.068 1.646-13.38 4.744-18.548 8.309zm28.367 19.153a9.824 9.824 0 0 1-4.115 6.353 9.82 9.82 0 0 1-5.595 1.747 9.902 9.902 0 0 1-8.158-4.28 76.993 76.993 0 0 1-4.613-7.585c4.534-3.82 10.923-7.299 17.832-8.588a58.57 58.57 0 0 0 3.067 4.952 9.828 9.828 0 0 1 1.582 7.401zm51.105-59.93c-35.18 0-72.772-17.386-72.772-66.183 0-14.982 3.594-29.377 10.432-42.055 20.387 9.855 42.143 15.168 63.528 15.168 20.721 0 41.792-4.989 61.626-14.264 6.525 12.464 9.957 26.547 9.957 41.15.001 48.797-37.59 66.184-72.771 66.184zm106.886 32.884a9.855 9.855 0 0 1-10.264 9.498c-5.449-.212-9.71-4.817-9.499-10.265a57.232 57.232 0 0 0-.173-7.322c5.278-1.963 12.225-3.251 19.604-2.459.341 3.409.472 6.92.332 10.548zm-4.008-26.615a60.116 60.116 0 0 0-20.166 3.229 34.07 34.07 0 0 0-11.485-12.867 38.395 38.395 0 0 0-6.508-3.463 71.109 71.109 0 0 0 12.758-15.79 55.93 55.93 0 0 1 4.709 2.79c9.659 6.431 16.648 15.356 20.692 26.101zm11.701-78.598c-7.794-4.709-17.188-7.581-26.907-7.979a104.51 104.51 0 0 0-4.598-19.79c9.85-.32 19.657 1.23 28.815 4.595a73.054 73.054 0 0 1 17.095 8.982c-6.463 3.429-11.211 8.606-14.405 14.192zm27.352-2.116c2.612 3.219 4.86 6.649 6.668 10.251a9.824 9.824 0 0 1 .55 7.548 9.828 9.828 0 0 1-4.95 5.727 9.763 9.763 0 0 1-4.422 1.056 9.85 9.85 0 0 1-8.85-5.454 37.173 37.173 0 0 0-4.018-6.284c1.847-4.604 6.014-11.126 15.022-12.844zm6.489 43.299l-.393 1.057c-1.268 3.41-2.578 6.937-4.265 10.458-1.826 3.811-6.413 5.429-10.224 3.601-2.211-1.059-3.747-3.05-4.201-5.387l-.054-.289c-.689-3.669-1.043-7.743-1.082-12.421-.003-.881.016-1.752.036-2.622a25.764 25.764 0 0 0 11.54 2.72c3.598 0 7.203-.783 10.5-2.26l-1.857 5.143zm40.179-67.133l-1.097 1.099c-.989.993-1.965 1.956-2.922 2.9-1.763 1.739-3.428 3.38-5.071 5.104-2.34 2.454-4.695 5.181-7.236 8.38a103.957 103.957 0 0 0-8.313 12.318 26.149 26.149 0 0 0-1.208-2.821c-3.473-6.917-8.186-13.316-13.844-18.997a69.217 69.217 0 0 1 7.685-7.316c7.631-6.251 16.314-10.687 25.112-12.828 3.894-.946 7.831 1.449 8.779 5.344a7.23 7.23 0 0 1-1.885 6.817zm-164.063-42.853v-10.884c3.705-3.412 6.046-8.285 6.046-13.707a7.918 7.918 0 0 0-15.834 0c0 1.555-1.265 2.82-2.82 2.82s-2.82-1.265-2.82-2.82a7.918 7.918 0 0 0-15.834 0 2.823 2.823 0 0 1-2.82 2.82 2.823 2.823 0 0 1-2.82-2.82 7.918 7.918 0 0 0-15.834 0c0 5.422 2.339 10.296 6.045 13.706v10.884c0 12.874 10.473 23.347 23.347 23.347s23.344-10.473 23.344-23.346zm-30.859 0v-6.225a18.552 18.552 0 0 0 7.512-3.119 18.552 18.552 0 0 0 7.512 3.119v6.225c0 4.142-3.37 7.512-7.512 7.512-4.142 0-7.512-3.37-7.512-7.512zm65.169-29.531a7.918 7.918 0 0 0 7.917-7.917 2.553 2.553 0 0 1 2.55-2.55 2.553 2.553 0 0 1 2.55 2.55 7.918 7.918 0 0 0 15.834 0c0-10.137-8.248-18.385-18.385-18.385s-18.385 8.248-18.385 18.385a7.92 7.92 0 0 0 7.919 7.917zm-125.782-26.302c-10.137 0-18.385 8.248-18.385 18.385a7.918 7.918 0 0 0 15.834 0c0-1.406 1.144-2.55 2.55-2.55s2.55 1.144 2.55 2.55a7.918 7.918 0 0 0 15.834 0c.002-10.137-8.245-18.385-18.383-18.385z"/></svg>